<svg width="1920" height="1080" viewBox="0 0 1920 1080" fill="none" xmlns="http://www.w3.org/2000/svg">
<g clip-path="url(#clip0_445_565)">
<rect width="1920" height="1080" fill="white"/>
<g filter="url(#filter0_f_445_565)">
<circle cx="1449.92" cy="742.693" r="554.839" transform="rotate(-30 1449.92 742.693)" fill="url(#paint0_angular_445_565)"/>
</g>
<g filter="url(#filter1_bd_445_565)">
<rect x="170" y="275" width="904" height="529" rx="19" fill="#EAEAEA" fill-opacity="0.1" shape-rendering="crispEdges"/>
<rect x="170.5" y="275.5" width="903" height="528" rx="18.5" stroke="white" shape-rendering="crispEdges"/>
</g>
<path d="M274.664 558.781C274.664 567.609 270.23 573.527 261.363 576.535V576.828C266.207 577.688 270.191 579.914 273.316 583.508C276.48 587.102 278.062 591.945 278.062 598.039C278.062 605.891 275.445 612.023 270.211 616.438C265.016 620.812 257.945 623 249 623H212.027V537.219H246.598C255.348 537.219 262.203 539.152 267.164 543.02C272.164 546.848 274.664 552.102 274.664 558.781ZM222.867 573.078H248.297C254.078 573.078 258.121 571.965 260.426 569.738C262.73 567.473 263.883 564.23 263.883 560.012C263.883 555.949 262.672 552.746 260.25 550.402C257.828 548.02 254.234 546.828 249.469 546.828H222.867V573.078ZM222.867 582.688V613.391H250.055C261.5 613.391 267.223 608.273 267.223 598.039C267.223 593.391 265.875 589.68 263.18 586.906C260.523 584.094 256.949 582.688 252.457 582.688H222.867ZM300.094 573.781H344.098V583.391H300.094V613.391H351.305V623H289.254V537.219H349.84V546.828H300.094V573.781ZM363.902 537.219H374.742V573.664H420.562V537.219H431.344V623H420.562V583.273H374.742V623H363.902V537.219ZM447.691 537.219H458.531V623H447.691V537.219ZM474.762 623V537.219H487.945L530.836 607.883H531.07V537.219H541.852V623H528.668L485.836 552.57H485.602V623H474.762ZM557.965 623V537.219H589.078C600.992 537.219 610.328 540.969 617.086 548.469C623.844 555.93 627.223 566.496 627.223 580.168C627.223 593.84 623.844 604.406 617.086 611.867C610.328 619.289 600.992 623 589.078 623H557.965ZM568.805 546.828V613.391H589.078C593.297 613.391 597.027 612.766 600.27 611.516C603.551 610.266 606.188 608.625 608.18 606.594C610.172 604.523 611.793 602.023 613.043 599.094C614.332 596.164 615.211 593.176 615.68 590.129C616.188 587.082 616.441 583.762 616.441 580.168C616.441 576.574 616.188 573.254 615.68 570.207C615.211 567.16 614.332 564.172 613.043 561.242C611.793 558.273 610.172 555.754 608.18 553.684C606.188 551.613 603.551 549.953 600.27 548.703C597.027 547.453 593.297 546.828 589.078 546.828H568.805Z" fill="#2F2F2F"/>
<path d="M235.172 743V666.828H206.637V657.219H274.547V666.828H246.012V743H235.172ZM285.27 657.219H296.109V693.664H341.93V657.219H352.711V743H341.93V703.273H296.109V743H285.27V657.219ZM379.664 693.781H423.668V703.391H379.664V733.391H430.875V743H368.824V657.219H429.41V666.828H379.664V693.781ZM498.375 692.961C501.891 693.82 504.527 694.504 506.285 695.012C508.082 695.48 510.328 696.184 513.023 697.121C515.758 698.02 517.789 698.879 519.117 699.699C520.445 700.52 521.969 701.613 523.688 702.98C525.406 704.348 526.637 705.832 527.379 707.434C528.16 708.996 528.824 710.891 529.371 713.117C529.957 715.344 530.25 717.824 530.25 720.559C530.25 723.762 529.645 726.789 528.434 729.641C527.223 732.453 525.406 735.012 522.984 737.316C520.562 739.582 517.32 741.379 513.258 742.707C509.195 744.035 504.547 744.699 499.312 744.699C488.844 744.699 480.172 742.004 473.297 736.613C466.422 731.223 462.691 723.742 462.105 714.172H472.887C473.199 717.219 473.902 719.973 474.996 722.434C476.129 724.895 477.711 727.102 479.742 729.055C481.812 730.969 484.488 732.453 487.77 733.508C491.09 734.562 494.938 735.09 499.312 735.09C506.266 735.09 511.363 733.742 514.605 731.047C517.848 728.312 519.469 724.816 519.469 720.559C519.469 719.074 519.371 717.746 519.176 716.574C519.02 715.402 518.668 714.328 518.121 713.352C517.613 712.336 517.066 711.477 516.48 710.773C515.895 710.031 515.016 709.328 513.844 708.664C512.711 707.961 511.598 707.375 510.504 706.906C509.41 706.398 507.906 705.871 505.992 705.324C504.078 704.738 502.262 704.23 500.543 703.801C498.863 703.371 496.656 702.844 493.922 702.219C491.734 701.711 489.84 701.242 488.238 700.812C486.676 700.383 484.84 699.797 482.73 699.055C480.621 698.312 478.824 697.551 477.34 696.77C475.895 695.949 474.371 694.914 472.77 693.664C471.207 692.414 469.938 691.086 468.961 689.68C468.023 688.234 467.242 686.516 466.617 684.523C465.992 682.531 465.68 680.383 465.68 678.078C465.68 671.203 468.238 665.734 473.355 661.672C478.512 657.57 485.758 655.52 495.094 655.52C504.391 655.52 511.93 657.863 517.711 662.551C523.531 667.238 526.793 673.938 527.496 682.648H516.715C515.895 676.789 513.746 672.414 510.27 669.523C506.793 666.594 501.734 665.129 495.094 665.129C489.156 665.129 484.566 666.184 481.324 668.293C478.121 670.402 476.52 673.273 476.52 676.906C476.52 679.016 476.852 680.852 477.516 682.414C478.219 683.977 479.059 685.246 480.035 686.223C481.051 687.16 482.496 688.039 484.371 688.859C486.246 689.68 488.004 690.324 489.645 690.793C491.285 691.223 493.453 691.77 496.148 692.434C497.125 692.668 497.867 692.844 498.375 692.961ZM542.613 743V657.219H576.715C580.777 657.219 584.449 657.688 587.73 658.625C591.012 659.562 593.922 661.008 596.461 662.961C599.039 664.875 601.031 667.473 602.438 670.754C603.844 673.996 604.547 677.805 604.547 682.18C604.547 686.555 603.844 690.383 602.438 693.664C601.031 696.906 599.039 699.504 596.461 701.457C593.922 703.371 591.012 704.797 587.73 705.734C584.449 706.672 580.777 707.141 576.715 707.141H553.453V743H542.613ZM553.453 666.828V697.531H577.887C583.238 697.531 587.223 696.281 589.84 693.781C592.457 691.242 593.766 687.375 593.766 682.18C593.766 676.984 592.457 673.137 589.84 670.637C587.223 668.098 583.238 666.828 577.887 666.828H553.453ZM657.926 721.496H620.133L612.574 743H601.383L633.082 657.219H645.094L676.676 743H665.484L657.926 721.496ZM623.707 711.945H654.469L639.234 667.18H639L623.707 711.945ZM743.883 685.52C743.531 683.723 743.004 681.965 742.301 680.246C741.637 678.527 740.621 676.73 739.254 674.855C737.926 672.98 736.344 671.359 734.508 669.992C732.711 668.586 730.387 667.434 727.535 666.535C724.723 665.598 721.617 665.129 718.219 665.129C714.273 665.129 710.66 665.793 707.379 667.121C704.137 668.449 701.402 670.227 699.176 672.453C696.988 674.68 695.133 677.297 693.609 680.305C692.086 683.312 690.973 686.477 690.27 689.797C689.605 693.078 689.273 696.496 689.273 700.051C689.273 703.605 689.605 707.043 690.27 710.363C690.973 713.684 692.086 716.867 693.609 719.914C695.133 722.922 696.988 725.539 699.176 727.766C701.402 729.992 704.137 731.77 707.379 733.098C710.66 734.426 714.273 735.09 718.219 735.09C721.695 735.09 724.859 734.641 727.711 733.742C730.562 732.805 732.926 731.594 734.801 730.109C736.715 728.625 738.336 726.867 739.664 724.836C741.031 722.805 742.027 720.734 742.652 718.625C743.316 716.516 743.727 714.328 743.883 712.062H754.664C754 718.43 752.145 724.055 749.098 728.938C746.051 733.82 741.852 737.668 736.5 740.48C731.188 743.293 725.094 744.699 718.219 744.699C710.484 744.699 703.59 742.785 697.535 738.957C691.48 735.129 686.793 729.836 683.473 723.078C680.152 716.281 678.492 708.605 678.492 700.051C678.492 691.535 680.152 683.898 683.473 677.141C686.793 670.383 691.48 665.09 697.535 661.262C703.629 657.434 710.523 655.52 718.219 655.52C723.336 655.52 728.082 656.32 732.457 657.922C736.832 659.484 740.543 661.652 743.59 664.426C746.637 667.16 749.117 670.344 751.031 673.977C752.945 677.57 754.156 681.418 754.664 685.52H743.883ZM777.633 693.781H821.637V703.391H777.633V733.391H828.844V743H766.793V657.219H827.379V666.828H777.633V693.781Z" fill="#2F2F2F"/>
</g>
<defs>
<filter id="filter0_f_445_565" x="844.992" y="137.762" width="1209.87" height="1209.86" filterUnits="userSpaceOnUse" color-interpolation-filters="sRGB">
<feFlood flood-opacity="0" result="BackgroundImageFix"/>
<feBlend mode="normal" in="SourceGraphic" in2="BackgroundImageFix" result="shape"/>
<feGaussianBlur stdDeviation="25" result="effect1_foregroundBlur_445_565"/>
</filter>
<filter id="filter1_bd_445_565" x="48" y="153" width="1148" height="773" filterUnits="userSpaceOnUse" color-interpolation-filters="sRGB">
<feFlood flood-opacity="0" result="BackgroundImageFix"/>
<feGaussianBlur in="BackgroundImageFix" stdDeviation="61"/>
<feComposite in2="SourceAlpha" operator="in" result="effect1_backgroundBlur_445_565"/>
<feColorMatrix in="SourceAlpha" type="matrix" values="0 0 0 0 0 0 0 0 0 0 0 0 0 0 0 0 0 0 127 0" result="hardAlpha"/>
<feOffset dx="-4" dy="4"/>
<feGaussianBlur stdDeviation="2"/>
<feComposite in2="hardAlpha" operator="out"/>
<feColorMatrix type="matrix" values="0 0 0 0 0 0 0 0 0 0 0 0 0 0 0 0 0 0 0.1 0"/>
<feBlend mode="normal" in2="effect1_backgroundBlur_445_565" result="effect2_dropShadow_445_565"/>
<feBlend mode="normal" in="SourceGraphic" in2="effect2_dropShadow_445_565" result="shape"/>
</filter>
<radialGradient id="paint0_angular_445_565" cx="0" cy="0" r="1" gradientUnits="userSpaceOnUse" gradientTransform="translate(1572.42 742.693) scale(407.05 554.839)">
<stop stop-color="#EF663B"/>
<stop offset="0.5" stop-color="#D799C8"/>
<stop offset="1" stop-color="#6161F5"/>
</radialGradient>
<clipPath id="clip0_445_565">
<rect width="1920" height="1080" fill="white"/>
</clipPath>
</defs>
</svg>
