<svg width="522" height="777" viewBox="0 0 522 777" fill="none" xmlns="http://www.w3.org/2000/svg">
<path d="M1 302.565C1 -60.4354 521.5 -63.9353 521.5 302.565H1Z" fill="white" stroke="black"/>
<circle cx="264.5" cy="14.5" r="14" fill="white" stroke="black"/>
<path d="M155.29 775.5C235.313 637.391 261.301 504.262 235.251 303H286.749C260.699 504.262 286.687 637.391 366.71 775.5H155.29Z" fill="white"/>
<path d="M155 776C235.251 637.712 261.332 504.505 235.251 303H286.749C260.668 504.505 286.749 637.712 367 776M155 775.5H367" stroke="black"/>
<path d="M472.459 176.169C475.62 181.643 477.893 186.919 479.02 191.014C479.584 193.066 479.853 194.793 479.815 196.09C479.777 197.418 479.425 198.128 478.946 198.404C478.467 198.681 477.677 198.63 476.507 198C475.366 197.384 474.004 196.288 472.51 194.773C469.526 191.75 466.094 187.143 462.933 181.669C459.772 176.194 457.499 170.918 456.372 166.823C455.808 164.771 455.539 163.044 455.577 161.748C455.616 160.419 455.967 159.709 456.446 159.433C456.925 159.157 457.715 159.207 458.885 159.838C460.026 160.453 461.388 161.549 462.883 163.064C465.866 166.087 469.299 170.694 472.459 176.169Z" stroke="black"/>
<path d="M448.116 140.552C450.508 143.053 452.179 145.757 452.959 148.089C453.754 150.462 453.576 152.265 452.601 153.198C451.626 154.131 449.817 154.228 447.481 153.329C445.186 152.445 442.559 150.656 440.167 148.155C437.774 145.654 436.104 142.95 435.323 140.617C434.529 138.244 434.706 136.441 435.682 135.509C436.657 134.576 438.466 134.479 440.801 135.378C443.097 136.261 445.724 138.051 448.116 140.552Z" stroke="black"/>
</svg>
