<svg width="1920" height="1080" viewBox="0 0 1920 1080" fill="none" xmlns="http://www.w3.org/2000/svg">
<g clip-path="url(#clip0_540_255)">
<circle cx="360.615" cy="242.092" r="74.5105" stroke="#545454"/>
<rect x="320.029" y="72.5928" width="80.4184" height="80.4184" rx="26.5" stroke="#545454"/>
<rect x="320.029" y="54.5" width="80.4184" height="14.8314" rx="7.41568" stroke="#545454"/>
<rect x="186.593" y="282.678" width="80.4184" height="80.4184" rx="26.5" transform="rotate(-90 186.593 282.678)" stroke="#545454"/>
<rect x="168.5" y="282.678" width="80.4184" height="14.8314" rx="7.41568" transform="rotate(-90 168.5 282.678)" stroke="#545454"/>
<rect x="400.447" y="411.59" width="80.4184" height="80.4184" rx="26.5" transform="rotate(180 400.447 411.59)" stroke="#545454"/>
<rect x="400.447" y="429.683" width="80.4184" height="14.8314" rx="7.41568" transform="rotate(180 400.447 429.683)" stroke="#545454"/>
<rect x="534.637" y="202.259" width="80.4184" height="80.4184" rx="26.5" transform="rotate(90 534.637 202.259)" stroke="#545454"/>
<rect x="552.73" y="202.259" width="80.4184" height="14.8314" rx="7.41568" transform="rotate(90 552.73 202.259)" stroke="#545454"/>
<circle cx="360.615" cy="844.092" r="74.5105" stroke="#545454"/>
<rect x="320.029" y="674.593" width="80.4184" height="80.4184" rx="26.5" stroke="#545454"/>
<rect x="320.029" y="656.5" width="80.4184" height="14.8314" rx="7.41568" stroke="#545454"/>
<rect x="186.593" y="884.678" width="80.4184" height="80.4184" rx="26.5" transform="rotate(-90 186.593 884.678)" stroke="#545454"/>
<rect x="168.5" y="884.678" width="80.4184" height="14.8314" rx="7.41568" transform="rotate(-90 168.5 884.678)" stroke="#545454"/>
<rect x="400.447" y="1013.59" width="80.4184" height="80.4184" rx="26.5" transform="rotate(180 400.447 1013.59)" stroke="#545454"/>
<rect x="400.447" y="1031.68" width="80.4184" height="14.8314" rx="7.41568" transform="rotate(180 400.447 1031.68)" stroke="#545454"/>
<rect x="534.637" y="804.259" width="80.4184" height="80.4184" rx="26.5" transform="rotate(90 534.637 804.259)" stroke="#545454"/>
<rect x="552.73" y="804.259" width="80.4184" height="14.8314" rx="7.41568" transform="rotate(90 552.73 804.259)" stroke="#545454"/>
<circle cx="959.615" cy="242.092" r="74.5105" stroke="#545454"/>
<rect x="919.029" y="72.5928" width="80.4184" height="80.4184" rx="26.5" stroke="#545454"/>
<rect x="919.029" y="54.5" width="80.4184" height="14.8314" rx="7.41568" stroke="#545454"/>
<rect x="785.593" y="282.678" width="80.4184" height="80.4184" rx="26.5" transform="rotate(-90 785.593 282.678)" stroke="#545454"/>
<rect x="767.5" y="282.678" width="80.4184" height="14.8314" rx="7.41568" transform="rotate(-90 767.5 282.678)" stroke="#545454"/>
<rect x="999.447" y="411.59" width="80.4184" height="80.4184" rx="26.5" transform="rotate(180 999.447 411.59)" stroke="#545454"/>
<rect x="999.447" y="429.683" width="80.4184" height="14.8314" rx="7.41568" transform="rotate(180 999.447 429.683)" stroke="#545454"/>
<rect x="1133.64" y="202.259" width="80.4184" height="80.4184" rx="26.5" transform="rotate(90 1133.64 202.259)" stroke="#545454"/>
<rect x="1151.73" y="202.259" width="80.4184" height="14.8314" rx="7.41568" transform="rotate(90 1151.73 202.259)" stroke="#545454"/>
<circle cx="959.615" cy="844.092" r="74.5105" stroke="#545454"/>
<rect x="919.029" y="674.593" width="80.4184" height="80.4184" rx="26.5" stroke="#545454"/>
<rect x="919.029" y="656.5" width="80.4184" height="14.8314" rx="7.41568" stroke="#545454"/>
<rect x="785.593" y="884.678" width="80.4184" height="80.4184" rx="26.5" transform="rotate(-90 785.593 884.678)" stroke="#545454"/>
<rect x="767.5" y="884.678" width="80.4184" height="14.8314" rx="7.41568" transform="rotate(-90 767.5 884.678)" stroke="#545454"/>
<rect x="999.447" y="1013.59" width="80.4184" height="80.4184" rx="26.5" transform="rotate(180 999.447 1013.59)" stroke="#545454"/>
<rect x="999.447" y="1031.68" width="80.4184" height="14.8314" rx="7.41568" transform="rotate(180 999.447 1031.68)" stroke="#545454"/>
<rect x="1133.64" y="804.259" width="80.4184" height="80.4184" rx="26.5" transform="rotate(90 1133.64 804.259)" stroke="#545454"/>
<rect x="1151.73" y="804.259" width="80.4184" height="14.8314" rx="7.41568" transform="rotate(90 1151.73 804.259)" stroke="#545454"/>
<circle cx="1558.61" cy="242.092" r="74.5105" stroke="#545454"/>
<rect x="1518.03" y="72.5928" width="80.4184" height="80.4184" rx="26.5" stroke="#545454"/>
<rect x="1518.03" y="54.5" width="80.4184" height="14.8314" rx="7.41568" stroke="#545454"/>
<rect x="1384.59" y="282.678" width="80.4184" height="80.4184" rx="26.5" transform="rotate(-90 1384.59 282.678)" stroke="#545454"/>
<rect x="1366.5" y="282.678" width="80.4184" height="14.8314" rx="7.41568" transform="rotate(-90 1366.5 282.678)" stroke="#545454"/>
<rect x="1598.45" y="411.59" width="80.4184" height="80.4184" rx="26.5" transform="rotate(180 1598.45 411.59)" stroke="#545454"/>
<rect x="1598.45" y="429.683" width="80.4184" height="14.8314" rx="7.41568" transform="rotate(180 1598.45 429.683)" stroke="#545454"/>
<rect x="1732.64" y="202.259" width="80.4184" height="80.4184" rx="26.5" transform="rotate(90 1732.64 202.259)" stroke="#545454"/>
<rect x="1750.73" y="202.259" width="80.4184" height="14.8314" rx="7.41568" transform="rotate(90 1750.73 202.259)" stroke="#545454"/>
<circle cx="1558.61" cy="844.092" r="74.5105" stroke="#545454"/>
<rect x="1518.03" y="674.593" width="80.4184" height="80.4184" rx="26.5" stroke="#545454"/>
<rect x="1518.03" y="656.5" width="80.4184" height="14.8314" rx="7.41568" stroke="#545454"/>
<rect x="1384.59" y="884.678" width="80.4184" height="80.4184" rx="26.5" transform="rotate(-90 1384.59 884.678)" stroke="#545454"/>
<rect x="1366.5" y="884.678" width="80.4184" height="14.8314" rx="7.41568" transform="rotate(-90 1366.5 884.678)" stroke="#545454"/>
<rect x="1598.45" y="1013.59" width="80.4184" height="80.4184" rx="26.5" transform="rotate(180 1598.45 1013.59)" stroke="#545454"/>
<rect x="1598.45" y="1031.68" width="80.4184" height="14.8314" rx="7.41568" transform="rotate(180 1598.45 1031.68)" stroke="#545454"/>
<rect x="1732.64" y="804.259" width="80.4184" height="80.4184" rx="26.5" transform="rotate(90 1732.64 804.259)" stroke="#545454"/>
<rect x="1750.73" y="804.259" width="80.4184" height="14.8314" rx="7.41568" transform="rotate(90 1750.73 804.259)" stroke="#545454"/>
<g clip-path="url(#clip1_540_255)">
<g clip-path="url(#clip2_540_255)">
<path d="M0 0H1920V1H0V0Z" fill="#2F2F30"/>
<path d="M0 60H1920V61H0V60Z" fill="#2F2F30"/>
<path d="M0 120H1920V121H0V120Z" fill="#2F2F30"/>
<path d="M0 180H1920V181H0V180Z" fill="#2F2F30"/>
<path d="M0 240H1920V241H0V240Z" fill="#2F2F30"/>
<path d="M0 300H1920V301H0V300Z" fill="#2F2F30"/>
<path d="M0 360H1920V361H0V360Z" fill="#2F2F30"/>
<path d="M0 420H1920V421H0V420Z" fill="#2F2F30"/>
<path d="M0 480H1920V481H0V480Z" fill="#2F2F30"/>
<path d="M0 540H1920V541H0V540Z" fill="#2F2F30"/>
<path d="M0 600H1920V601H0V600Z" fill="#2F2F30"/>
<path d="M0 660H1920V661H0V660Z" fill="#2F2F30"/>
<path d="M0 720H1920V721H0V720Z" fill="#2F2F30"/>
<path d="M0 780H1920V781H0V780Z" fill="#2F2F30"/>
<path d="M0 840H1920V841H0V840Z" fill="#2F2F30"/>
<path d="M0 900H1920V901H0V900Z" fill="#2F2F30"/>
<path d="M0 960H1920V961H0V960Z" fill="#2F2F30"/>
<path d="M0 1020H1920V1021H0V1020Z" fill="#2F2F30"/>
<path d="M0 1080H1920V1081H0V1080Z" fill="#2F2F30"/>
<path d="M0 0H1V1080H0V0Z" fill="#2F2F30"/>
<path d="M60 0H61V1080H60V0Z" fill="#2F2F30"/>
<path d="M120 0H121V1080H120V0Z" fill="#2F2F30"/>
<path d="M180 0H181V1080H180V0Z" fill="#2F2F30"/>
<path d="M240 0H241V1080H240V0Z" fill="#2F2F30"/>
<path d="M300 0H301V1080H300V0Z" fill="#2F2F30"/>
<path d="M360 0H361V1080H360V0Z" fill="#2F2F30"/>
<path d="M420 0H421V1080H420V0Z" fill="#2F2F30"/>
<path d="M480 0H481V1080H480V0Z" fill="#2F2F30"/>
<path d="M540 0H541V1080H540V0Z" fill="#2F2F30"/>
<path d="M600 0H601V1080H600V0Z" fill="#2F2F30"/>
<path d="M660 0H661V1080H660V0Z" fill="#2F2F30"/>
<path d="M720 0H721V1080H720V0Z" fill="#2F2F30"/>
<path d="M780 0H781V1080H780V0Z" fill="#2F2F30"/>
<path d="M840 0H841V1080H840V0Z" fill="#2F2F30"/>
<path d="M900 0H901V1080H900V0Z" fill="#2F2F30"/>
<path d="M960 0H961V1080H960V0Z" fill="#2F2F30"/>
<path d="M1020 0H1021V1080H1020V0Z" fill="#2F2F30"/>
<path d="M1080 0H1081V1080H1080V0Z" fill="#2F2F30"/>
<path d="M1140 0H1141V1080H1140V0Z" fill="#2F2F30"/>
<path d="M1200 0H1201V1080H1200V0Z" fill="#2F2F30"/>
<path d="M1260 0H1261V1080H1260V0Z" fill="#2F2F30"/>
<path d="M1320 0H1321V1080H1320V0Z" fill="#2F2F30"/>
<path d="M1380 0H1381V1080H1380V0Z" fill="#2F2F30"/>
<path d="M1440 0H1441V1080H1440V0Z" fill="#2F2F30"/>
<path d="M1500 0H1501V1080H1500V0Z" fill="#2F2F30"/>
<path d="M1560 0H1561V1080H1560V0Z" fill="#2F2F30"/>
<path d="M1620 0H1621V1080H1620V0Z" fill="#2F2F30"/>
<path d="M1680 0H1681V1080H1680V0Z" fill="#2F2F30"/>
<path d="M1740 0H1741V1080H1740V0Z" fill="#2F2F30"/>
<path d="M1800 0H1801V1080H1800V0Z" fill="#2F2F30"/>
<path d="M1860 0H1861V1080H1860V0Z" fill="#2F2F30"/>
<path d="M1920 0H1921V1080H1920V0Z" fill="#2F2F30"/>
</g>
</g>
</g>
<defs>
<clipPath id="clip0_540_255">
<rect width="1920" height="1080" fill="white"/>
</clipPath>
<clipPath id="clip1_540_255">
<rect width="1920" height="1080" fill="white"/>
</clipPath>
<clipPath id="clip2_540_255">
<rect width="1920" height="1080" fill="white"/>
</clipPath>
</defs>
</svg>
